<svg width="20" height="20" viewBox="0 0 20 20" fill="none" xmlns="http://www.w3.org/2000/svg">
<path d="M5.63764 9.60875C5.63764 9.855 5.66264 10.055 5.71014 10.2025C5.76264 10.3487 5.83014 10.5087 5.92264 10.6825C5.95215 10.7284 5.96818 10.7817 5.96889 10.8362C5.96889 10.9025 5.92889 10.97 5.84389 11.0363L5.42389 11.3163C5.37347 11.3526 5.31351 11.3735 5.25139 11.3763C5.18389 11.3763 5.11764 11.3438 5.05139 11.2838C4.96154 11.1871 4.88118 11.082 4.81139 10.97C4.73703 10.8418 4.66821 10.7104 4.60514 10.5763C4.08639 11.19 3.43514 11.4975 2.65014 11.4975C2.09139 11.4975 1.64514 11.3362 1.32014 11.0162C0.993887 10.6962 0.827637 10.2688 0.827637 9.735C0.827637 9.1675 1.02764 8.7075 1.43264 8.36C1.83889 8.0125 2.37764 7.84 3.06264 7.84C3.28764 7.84 3.52139 7.86 3.76764 7.8925C4.01389 7.92625 4.26764 7.98 4.53264 8.04V7.5525C4.53264 7.045 4.42639 6.69125 4.22014 6.485C4.00764 6.2775 3.64764 6.1775 3.13514 6.1775C2.90264 6.1775 2.66389 6.205 2.41764 6.265C2.17298 6.32323 1.93278 6.39884 1.69889 6.49125C1.62337 6.52544 1.54571 6.55467 1.46639 6.57875C1.43202 6.59011 1.39628 6.59683 1.36014 6.59875C1.26639 6.59875 1.22014 6.53125 1.22014 6.39125V6.06375C1.22014 5.9575 1.23264 5.87625 1.26639 5.83125C1.31676 5.76992 1.38104 5.72149 1.45389 5.69C1.68514 5.57 1.96514 5.47 2.29139 5.39C2.61639 5.3025 2.96264 5.26375 3.32889 5.26375C4.12014 5.26375 4.69889 5.44375 5.07139 5.80375C5.43764 6.16375 5.62389 6.71125 5.62389 7.44625V9.60875H5.63639H5.63764ZM2.93639 10.6225C3.15514 10.6225 3.38139 10.5825 3.62139 10.5025C3.86014 10.4225 4.07389 10.275 4.25264 10.075C4.35982 9.9522 4.43725 9.80634 4.47889 9.64875C4.51889 9.4875 4.54639 9.295 4.54639 9.0675V8.7875C4.34449 8.73854 4.14 8.70098 3.93389 8.675C3.72662 8.64819 3.51788 8.63441 3.30889 8.63375C2.86264 8.63375 2.53639 8.72125 2.31764 8.90125C2.09764 9.08125 1.99264 9.335 1.99264 9.66875C1.99264 9.98125 2.07139 10.215 2.23764 10.3762C2.39764 10.5425 2.63014 10.6225 2.93639 10.6225ZM8.27764 11.3438C8.15764 11.3438 8.07764 11.3238 8.02514 11.2762C7.97139 11.2362 7.92514 11.1437 7.88514 11.0162L6.32264 5.8575C6.29182 5.77104 6.27126 5.68126 6.26139 5.59C6.26139 5.48375 6.31514 5.42375 6.42139 5.42375H7.07389C7.19889 5.42375 7.28639 5.44375 7.33264 5.49C7.38639 5.53 7.42639 5.62375 7.46639 5.75L8.58389 10.1688L9.62139 5.75C9.65389 5.6175 9.69389 5.53 9.74639 5.49C9.82659 5.44087 9.92002 5.41773 10.0139 5.42375H10.5451C10.6726 5.42375 10.7576 5.44375 10.8114 5.49C10.8651 5.53 10.9114 5.62375 10.9376 5.75L11.9889 10.2225L13.1389 5.75C13.1602 5.65322 13.2063 5.56363 13.2726 5.49C13.3501 5.44091 13.4411 5.41771 13.5326 5.42375H14.1514C14.2576 5.42375 14.3176 5.4775 14.3176 5.59C14.3176 5.62375 14.3101 5.6575 14.3051 5.6975C14.2944 5.75425 14.2785 5.80989 14.2576 5.86375L12.6539 11.0225C12.6139 11.1562 12.5676 11.2438 12.5151 11.2838C12.4397 11.332 12.3508 11.3552 12.2614 11.35H11.6901C11.5639 11.35 11.4776 11.33 11.4239 11.2838C11.3701 11.2363 11.3239 11.15 11.2976 11.0162L10.2664 6.7125L9.24139 11.0113C9.20889 11.145 9.16889 11.2313 9.11639 11.2775C9.06264 11.325 8.96889 11.345 8.85014 11.345H8.27764V11.3438ZM16.8251 11.5238C16.4799 11.5242 16.1359 11.4839 15.8001 11.4038C15.4676 11.3238 15.2089 11.2363 15.0351 11.1363C14.9289 11.0763 14.8564 11.01 14.8289 10.9488C14.8035 10.8899 14.7903 10.8266 14.7901 10.7625V10.4225C14.7901 10.2825 14.8426 10.215 14.9426 10.215C14.9835 10.2151 15.024 10.2218 15.0626 10.235C15.1026 10.2487 15.1626 10.275 15.2289 10.3025C15.4539 10.4025 15.7014 10.4825 15.9601 10.5363C16.2264 10.5887 16.4851 10.6163 16.7514 10.6163C17.1714 10.6163 17.4964 10.5425 17.7226 10.3963C17.8313 10.3305 17.9206 10.237 17.9815 10.1255C18.0423 10.0139 18.0724 9.88825 18.0689 9.76125C18.0711 9.6755 18.0564 9.59016 18.0255 9.51013C17.9946 9.43011 17.9482 9.357 17.8889 9.295C17.7701 9.1675 17.5439 9.05375 17.2176 8.9475L16.2526 8.6475C15.7676 8.49375 15.4076 8.26625 15.1889 7.96625C14.9747 7.68905 14.8579 7.34903 14.8564 6.99875C14.8564 6.71875 14.9164 6.47125 15.0351 6.2575C15.1551 6.045 15.3151 5.8575 15.5151 5.71C15.7151 5.5575 15.9401 5.44375 16.2064 5.36375C16.4726 5.28375 16.7514 5.25 17.0439 5.25C17.1914 5.25 17.3439 5.25625 17.4901 5.27625C17.6426 5.29625 17.7826 5.32375 17.9226 5.35125C18.0551 5.38375 18.1826 5.41625 18.3014 5.4575C18.4214 5.4975 18.5139 5.5375 18.5814 5.5775C18.6599 5.61691 18.7283 5.67379 18.7814 5.74375C18.8242 5.80883 18.8448 5.886 18.8401 5.96375V6.2775C18.8401 6.4175 18.7876 6.49125 18.6876 6.49125C18.5991 6.48114 18.5133 6.45397 18.4351 6.41125C18.0332 6.23303 17.5973 6.14432 17.1576 6.15125C16.7789 6.15125 16.4789 6.21125 16.2726 6.33875C16.0664 6.46375 15.9601 6.65875 15.9601 6.9325C15.9601 7.11875 16.0264 7.27875 16.1601 7.40625C16.2926 7.5325 16.5389 7.65875 16.8914 7.7725L17.8364 8.0725C18.3151 8.22625 18.6614 8.44 18.8676 8.71375C19.0739 8.9875 19.1726 9.30125 19.1726 9.64875C19.1726 9.93625 19.1139 10.195 19.0001 10.4225C18.8824 10.6508 18.717 10.8511 18.5151 11.01C18.3089 11.1762 18.0626 11.2975 17.7764 11.3838C17.4764 11.4775 17.1639 11.5238 16.8251 11.5238Z" fill="#252F3E"/>
<path fill-rule="evenodd" clip-rule="evenodd" d="M18.0817 14.7661C15.8942 16.3874 12.7142 17.2486 9.9804 17.2486C6.14915 17.2486 2.69665 15.8274 0.0891511 13.4649C-0.117099 13.2774 0.0691511 13.0236 0.314151 13.1711C3.1354 14.8124 6.61415 15.8074 10.2142 15.8074C12.6404 15.8074 15.3079 15.2999 17.7629 14.2586C18.1292 14.0924 18.4417 14.4986 18.0817 14.7661Z" fill="#FF9900"/>
<path fill-rule="evenodd" clip-rule="evenodd" d="M18.9925 13.725C18.7137 13.3662 17.1437 13.5525 16.4325 13.6387C16.22 13.6662 16.1862 13.4787 16.3787 13.3387C17.6287 12.4575 19.685 12.7112 19.9237 13.005C20.1637 13.305 19.8575 15.3675 18.6862 16.355C18.5075 16.5087 18.335 16.43 18.4137 16.23C18.68 15.5675 19.2725 14.08 18.9925 13.7262V13.725Z" fill="#FF9900"/>
</svg>
