<svg width="20" height="20" viewBox="0 0 20 20" fill="none" xmlns="http://www.w3.org/2000/svg">
<path d="M12.8915 6.72005L15.2502 4.84505L14.8352 4.32755C13.8936 3.50658 12.7599 2.93671 11.5392 2.67077C10.3186 2.40483 9.05057 2.45145 7.85275 2.8063C6.65955 3.16673 5.57739 3.8242 4.70768 4.71708C3.83797 5.60997 3.20918 6.70904 2.88025 7.9113C2.84275 8.05255 3.27025 7.7888 3.459 7.8413L6.719 7.3063C6.719 7.3063 6.87775 7.1513 6.97025 7.05005C8.42025 5.46755 10.8777 5.26005 12.5515 6.60755L12.8915 6.72005Z" fill="#EA4335"/>
<path d="M17.0463 7.87514C16.6708 6.50207 15.9017 5.2689 14.8338 4.32764L12.5463 6.60264C13.022 6.98853 13.4035 7.4777 13.6618 8.03302C13.9202 8.58835 14.0487 9.19524 14.0376 9.80764V10.2114C15.1626 10.2114 16.0751 11.1176 16.0751 12.2364C16.0751 13.3526 15.1626 14.2601 14.0376 14.2601L9.96631 14.2564L9.56006 14.3001V17.4339L9.96631 17.5001H14.0376C15.1722 17.5113 16.2805 17.1574 17.1987 16.4908C18.117 15.8241 18.7967 14.88 19.1376 13.7976C19.4741 12.7168 19.4521 11.5562 19.075 10.4888C18.6979 9.42149 17.9859 8.50467 17.0451 7.87514H17.0463Z" fill="#4285F4"/>
<path d="M5.88891 17.4987H9.96266V14.2562H5.88766C5.59766 14.2562 5.31141 14.1737 5.04766 14.0549L4.47516 14.2299L2.83391 15.8512L2.69141 16.4099C3.6104 17.11 4.73239 17.4918 5.88766 17.4974L5.88891 17.4987Z" fill="#34A853"/>
<path d="M5.88899 6.96515C4.78804 6.96973 3.71593 7.31752 2.82197 7.96011C1.928 8.60269 1.25667 9.50806 0.901486 10.5501C0.550046 11.5916 0.533836 12.717 0.855136 13.7681C1.17644 14.8192 1.81909 15.7432 2.69274 16.4101L5.05524 14.0551C4.65382 13.8762 4.32168 13.5712 4.10916 13.1865C3.89663 12.8018 3.81529 12.3583 3.87747 11.9232C3.93964 11.4881 4.14195 11.0851 4.45372 10.7753C4.7655 10.4655 5.16975 10.2658 5.60524 10.2064C6.04081 10.1439 6.4849 10.2241 6.8711 10.435C7.2573 10.6459 7.56484 10.9762 7.74774 11.3764L10.1102 9.0289C9.61251 8.38336 8.9726 7.86133 8.24025 7.50339C7.5079 7.14546 6.70411 6.96127 5.88899 6.96515Z" fill="#FBBC05"/>
</svg>
