<svg width="20" height="20" viewBox="0 0 20 20" fill="none" xmlns="http://www.w3.org/2000/svg">
<g clip-path="url(#clip0_110_1464)">
<path d="M10.2884 7.1321L9.03369 7.82208L2.29484 11.5327L1.88085 11.7601L3.10749 9.96615L3.28637 8.77784L10.2884 7.1321ZM0 6.08179L3.85369 6.61589L6.79763 7.02221L8.18527 7.21643L8.5277 7.26243L3.24293 8.46351L3.18926 8.42518L1.41319 7.11932L0 6.08179Z" fill="#FEAD0D"/>
<path d="M15.7343 9.78986L15.1874 12.8692C15.1286 13.2117 15.0929 13.2883 14.3671 13.8531L14.1933 13.6154C14.7504 13.1606 14.822 13.1095 14.8731 12.8053L15.397 9.83586L15.7343 9.78986ZM17.2727 9.75919C17.7327 9.75919 18.024 9.99174 18.024 10.416C18.024 10.8708 17.7225 11.1136 16.9456 11.3308C16.4171 11.4765 16.2633 11.5196 16.2536 11.5223L16.2531 11.5225L16.253 11.5225L16.1815 11.9084C16.1764 11.962 16.1713 12.0131 16.1713 12.0617C16.1713 12.2994 16.2633 12.422 16.6594 12.422C16.9865 12.422 17.311 12.3121 17.6611 12.1486L17.7429 12.399C17.4005 12.5805 17.0044 12.7082 16.621 12.7082C16.0895 12.7082 15.8467 12.4987 15.8467 12.0694C15.8467 11.9825 15.8595 11.8879 15.8774 11.7908L16.0435 10.8351C16.1738 10.1144 16.5444 9.75919 17.2727 9.75919ZM11.4564 9.75664C11.7298 9.75664 12.2358 9.84352 12.5271 9.93808L12.0493 12.6469H11.4615L11.4564 12.3326C11.2136 12.5549 10.9095 12.7057 10.5313 12.7057C10.0432 12.7057 9.87196 12.445 9.87196 12.0591C9.87196 11.9646 9.88474 11.8675 9.90263 11.7627L10.0483 10.9373C10.1812 10.1681 10.3626 9.75664 11.4564 9.75664ZM19.2379 9.07687L19.1101 9.81541H19.9611L19.8972 10.094H19.059L18.6936 12.1818C18.6859 12.2227 18.6808 12.2559 18.6808 12.2866C18.6808 12.3965 18.737 12.4246 18.8724 12.4246C19.0309 12.4246 19.2277 12.3786 19.4372 12.2917L19.519 12.5115C19.3018 12.6341 19.059 12.7031 18.8137 12.7031C18.5274 12.7057 18.346 12.583 18.346 12.3275C18.346 12.2917 18.3511 12.2559 18.3588 12.2176L18.7319 10.094H18.1901L18.2361 9.81541H18.783L18.9057 9.12287L19.2379 9.07687ZM9.26631 9.75408C9.65475 9.75408 9.78508 10.0096 9.78508 10.3188C9.78508 10.4185 9.77486 10.5105 9.75441 10.5974L9.39409 12.6469H8.69643L9.05165 10.6281C9.05676 10.5974 9.05676 10.5642 9.05676 10.5514C9.05676 10.4773 9.02098 10.4313 8.9111 10.4313C8.72454 10.4313 8.32844 10.6051 8.06778 10.7635L7.73557 12.6495H7.03791L7.39313 10.6306C7.39824 10.6 7.39824 10.5667 7.39824 10.554C7.39824 10.4798 7.36246 10.4338 7.25258 10.4338C7.06603 10.4338 6.66992 10.6076 6.40926 10.7661L6.07705 12.652H5.37939L5.75505 10.5335L6.46293 10.1093C6.83603 9.90485 7.27813 9.75408 7.60779 9.75408C7.90423 9.75408 8.04989 9.90485 8.10356 10.1144C8.50477 9.88185 8.94176 9.75408 9.26631 9.75408ZM13.6899 9.76941L13.1839 12.6495H12.4862L12.9743 9.86652L13.6899 9.76941ZM15.0699 8.55811L14.3492 12.6469H13.6516L14.3543 8.65521L15.0699 8.55811ZM11.3516 10.3418C10.9044 10.3418 10.8149 10.5284 10.7536 10.8989L10.5773 11.893C10.5722 11.9288 10.5722 11.9467 10.5722 11.962C10.5722 12.0668 10.6361 12.1128 10.7638 12.1128C10.9836 12.1128 11.3056 11.9033 11.5203 11.6886L11.7528 10.3827C11.625 10.3597 11.4973 10.3418 11.3516 10.3418ZM17.2395 10.0326C16.7335 10.0326 16.4652 10.2958 16.3655 10.8529L16.3016 11.2133C16.3016 11.2133 16.4115 11.1852 16.9584 11.0395C17.4899 10.9015 17.7046 10.7098 17.7046 10.4057C17.7046 10.1502 17.5359 10.0326 17.2395 10.0326ZM13.9045 8.55811L13.7665 9.35031L13.051 9.45509L13.189 8.65521L13.9045 8.55811ZM15.9362 8.60922L15.8186 9.26598L15.4864 9.31198L15.5988 8.65521L15.9362 8.60922Z" fill="#FEAD0D"/>
</g>
<defs>
<clipPath id="clip0_110_1464">
<rect width="20" height="20" fill="white"/>
</clipPath>
</defs>
</svg>
