<svg width="20" height="20" viewBox="0 0 20 20" fill="none" xmlns="http://www.w3.org/2000/svg">
<path fill-rule="evenodd" clip-rule="evenodd" d="M15.311 4H4.66216C4.30456 4 4 4.30456 4 4.6756V5.88089C4 6.25169 4.30456 6.55649 4.66216 6.55649H15.311C15.6818 6.55649 15.9732 6.25193 15.9866 5.88089V4.6888C15.9866 4.30456 15.682 4 15.311 4ZM15.311 10.6888H4.66216C4.48984 10.6888 4.31776 10.7551 4.19872 10.8875C4.06624 11.02 4 11.1789 4 11.3644V12.5697C4 12.9405 4.30456 13.2453 4.66216 13.2453H15.311C15.6818 13.2453 15.9732 12.954 15.9866 12.5697V11.3644C15.9734 10.9804 15.682 10.6888 15.311 10.6888ZM10.6622 14.0265H4.66216C4.48984 14.0265 4.31776 14.0928 4.19872 14.2252C4.07944 14.3577 4 14.5166 4 14.7021V15.9074C4 16.2782 4.30456 16.583 4.66216 16.583H10.649C11.0198 16.583 11.3111 16.2784 11.3111 15.9208V14.7156C11.3243 14.3181 11.033 14.027 10.6622 14.027V14.0265ZM15.9866 7.33769H4.66216C4.48984 7.33769 4.31776 7.40393 4.19872 7.53641C4.07944 7.66889 4 7.82777 4 8.01329V9.21858C4 9.58938 4.30456 9.89418 4.66216 9.89418H15.9734C16.3442 9.89418 16.6356 9.58962 16.6356 9.21858V8.01329C16.6488 7.65569 16.3442 7.35113 15.9866 7.33769Z" fill="#2DBDEF"/>
</svg>
