<svg width="20" height="20" viewBox="0 0 20 20" fill="none" xmlns="http://www.w3.org/2000/svg">
<g clip-path="url(#clip0_111_1845)">
<path d="M10 20C15.5228 20 20 15.5228 20 10C20 4.47715 15.5228 0 10 0C4.47715 0 0 4.47715 0 10C0 15.5228 4.47715 20 10 20Z" fill="#635BFF"/>
<path d="M15.2668 10.0732C15.2668 9.32417 14.9039 8.73296 14.2105 8.73296C13.5172 8.73296 13.0928 9.32397 13.0928 10.0673C13.0928 10.948 13.5902 11.3929 14.3037 11.3929C14.652 11.3929 14.9152 11.3148 15.1143 11.2027V10.6167C14.9152 10.7162 14.6871 10.7777 14.3975 10.7777C14.1137 10.7777 13.8619 10.6783 13.8299 10.333H15.2607C15.2609 10.2955 15.2668 10.1433 15.2668 10.0732ZM13.8215 9.79526C13.8215 9.4646 14.0234 9.32651 14.2078 9.32651C14.3863 9.32651 14.5766 9.46323 14.5766 9.79526H13.8215ZM11.9633 8.73296C11.7498 8.73217 11.5443 8.81398 11.3898 8.96128L11.3518 8.77983H10.7072V12.1916L11.4387 12.0365L11.4416 11.2083C11.5469 11.2845 11.702 11.3927 11.9596 11.3927C12.4834 11.3927 12.9604 10.9714 12.9604 10.0439C12.958 9.19526 12.4752 8.73296 11.9633 8.73296ZM11.7875 10.749C11.6148 10.749 11.5125 10.6875 11.4422 10.6123L11.4393 9.52671C11.5154 9.44194 11.6207 9.38335 11.7875 9.38335C12.0537 9.38335 12.2381 9.68179 12.2381 10.0652C12.2383 10.4564 12.0568 10.749 11.7877 10.749H11.7875ZM9.70137 8.5603L10.4357 8.40229V7.80835L9.70137 7.96343V8.5603ZM9.70137 8.78276H10.4357V11.3431H9.70137V8.78276ZM8.91426 8.99917L8.86699 8.78276H8.23535V11.3429H8.9668V9.60776C9.13945 9.38237 9.43203 9.42339 9.52266 9.45562V8.78276C9.4293 8.74761 9.08691 8.68315 8.91426 8.99917ZM7.45117 8.1478L6.73809 8.30073L6.73516 10.6445C6.73516 11.0775 7.05996 11.3964 7.49297 11.3964C7.73281 11.3964 7.9084 11.3525 8.00508 11.3V10.7052C7.91152 10.7433 7.44922 10.8779 7.44922 10.4449V9.40601H8.00508V8.78276H7.44824L7.45117 8.1478ZM5.47324 9.52593C5.47324 9.41187 5.5668 9.36792 5.72188 9.36792C5.97499 9.37323 6.2234 9.43736 6.44746 9.55522V8.86714C6.21666 8.77623 5.97051 8.73067 5.72246 8.73296C5.12852 8.73296 4.7334 9.04312 4.7334 9.56108C4.7334 10.3687 5.84531 10.24 5.84531 10.588C5.84531 10.7226 5.72813 10.7666 5.56445 10.7666C5.32168 10.7666 5.01133 10.6671 4.76562 10.5322V11.2287C5.01785 11.3378 5.28963 11.3946 5.56445 11.3955C6.17305 11.3955 6.59141 11.0941 6.59141 10.5703C6.58809 9.69858 5.47324 9.85366 5.47324 9.52593Z" fill="white"/>
</g>
<defs>
<clipPath id="clip0_111_1845">
<rect width="20" height="20" fill="white"/>
</clipPath>
</defs>
</svg>
