<svg width="24" height="24" viewBox="0 0 24 24" fill="none" xmlns="http://www.w3.org/2000/svg">
<g clip-path="url(#clip0_111_1872)">
<path d="M8.24987 6.37508C8.24987 5.47998 8.60545 4.62153 9.23838 3.9886C9.87132 3.35566 10.7298 3.00008 11.6249 3.00008C12.52 3.00008 13.3784 3.35566 14.0114 3.9886C14.6443 4.62153 14.9999 5.47998 14.9999 6.37508C14.9999 6.67345 15.1184 6.9596 15.3294 7.17058C15.5403 7.38156 15.8265 7.50008 16.1249 7.50008C16.4232 7.50008 16.7094 7.38156 16.9204 7.17058C17.1313 6.9596 17.2499 6.67345 17.2499 6.37508C17.25 5.42754 17.0109 4.49531 16.5545 3.6649C16.0981 2.83449 15.4394 2.13283 14.6394 1.62502C13.8394 1.11721 12.9241 0.819717 11.9785 0.76015C11.0328 0.700584 10.0874 0.880874 9.23004 1.28429C8.37266 1.6877 7.63109 2.30117 7.07414 3.06775C6.51719 3.83433 6.16291 4.72918 6.04419 5.66926C5.92547 6.60933 6.04615 7.56417 6.39504 8.44514C6.74392 9.32612 7.3097 10.1047 8.03987 10.7086L4.63187 17.0956C4.49143 17.3589 4.46137 17.6673 4.5483 17.9528C4.63522 18.2384 4.83201 18.4777 5.09537 18.6181C5.35873 18.7585 5.66709 18.7886 5.95261 18.7017C6.23813 18.6147 6.47743 18.4179 6.61787 18.1546L10.4999 10.8751C10.5694 10.7447 10.6127 10.6019 10.627 10.4548C10.6414 10.3077 10.6266 10.1592 10.5836 10.0178C10.5405 9.87641 10.4701 9.74488 10.3762 9.63074C10.2823 9.5166 10.1668 9.42208 10.0364 9.35258C9.49675 9.06473 9.04549 8.63565 8.73083 8.11121C8.41616 7.58677 8.24992 6.98668 8.24987 6.37508Z" fill="black"/>
<path d="M11.0461 5.4106C11.1728 5.33434 11.3133 5.28381 11.4596 5.26191C11.6059 5.24001 11.755 5.24717 11.8985 5.28298C12.042 5.31878 12.1771 5.38253 12.2959 5.47058C12.4147 5.55863 12.5151 5.66924 12.5911 5.7961L16.5031 12.3196C17.3928 12.0061 18.347 11.9215 19.278 12.0733C20.209 12.2252 21.0868 12.6088 21.8307 13.1888C22.5747 13.7687 23.1608 14.5265 23.5352 15.3922C23.9096 16.258 24.0603 17.2041 23.9733 18.1434C23.8864 19.0826 23.5647 19.985 23.0377 20.7673C22.5107 21.5497 21.7955 22.187 20.9577 22.6206C20.12 23.0541 19.1867 23.2701 18.2436 23.2485C17.3006 23.2269 16.3781 22.9685 15.5611 22.4971C15.3027 22.3475 15.1143 22.1014 15.0374 21.8129C14.9605 21.5245 15.0013 21.2172 15.1508 20.9588C15.3004 20.7005 15.5465 20.5121 15.835 20.4351C16.1235 20.3582 16.4307 20.399 16.6891 20.5486C17.2043 20.8454 17.7888 21.0008 18.3834 20.999C18.978 20.9973 19.5615 20.8386 20.075 20.5388C20.5885 20.2391 21.0137 19.809 21.3076 19.2921C21.6015 18.7753 21.7536 18.1899 21.7485 17.5954C21.7435 17.0008 21.5814 16.4181 21.2788 15.9063C20.9762 15.3945 20.5437 14.9717 20.0252 14.6808C19.5067 14.3898 18.9205 14.241 18.326 14.2494C17.7315 14.2578 17.1497 14.4231 16.6396 14.7286C16.513 14.8049 16.3725 14.8555 16.2263 14.8776C16.0801 14.8996 15.931 14.8925 15.7875 14.8569C15.644 14.8212 15.509 14.7576 15.3901 14.6697C15.2712 14.5818 15.1708 14.4713 15.0946 14.3446L10.6606 6.9541C10.5843 6.82738 10.5338 6.68686 10.5119 6.54059C10.49 6.39432 10.4972 6.24516 10.533 6.10166C10.5688 5.95816 10.6325 5.82313 10.7206 5.70429C10.8086 5.58545 10.9192 5.48514 11.0461 5.4091V5.4106Z" fill="black"/>
<path d="M4.35024 13.1639C4.49912 13.4223 4.5393 13.7293 4.46195 14.0173C4.3846 14.3053 4.19605 14.5509 3.93774 14.6999C3.42476 14.9961 2.99875 15.4221 2.70254 15.935C2.40633 16.448 2.25034 17.0299 2.25024 17.6222C2.25015 18.2146 2.40595 18.7965 2.702 19.3095C2.99805 19.8226 3.42391 20.2487 3.93681 20.545C4.4497 20.8414 5.03155 20.9975 5.62389 20.9977C6.21623 20.998 6.79821 20.8423 7.31134 20.5464C7.82446 20.2505 8.25067 19.8247 8.54713 19.3119C8.84359 18.7991 8.99986 18.2173 9.00024 17.6249C9.00004 17.477 9.029 17.3306 9.08545 17.1939C9.14189 17.0573 9.22473 16.9331 9.32922 16.8284C9.4337 16.7238 9.55779 16.6408 9.69438 16.5842C9.83097 16.5276 9.97738 16.4984 10.1252 16.4984H18.3752C18.6736 16.4984 18.9598 16.6169 19.1707 16.8279C19.3817 17.0389 19.5002 17.325 19.5002 17.6234C19.5002 17.9218 19.3817 18.2079 19.1707 18.4189C18.9598 18.6299 18.6736 18.7484 18.3752 18.7484H11.1377C10.9501 19.6693 10.5347 20.5285 9.92962 21.2476C9.3245 21.9667 8.5489 22.5228 7.67362 22.8651C6.79834 23.2073 5.85126 23.3249 4.91886 23.207C3.98646 23.0891 3.09844 22.7396 2.33587 22.1903C1.57331 21.6409 0.960488 20.9093 0.553367 20.0623C0.146246 19.2152 -0.0422063 18.2797 0.00521474 17.341C0.0526358 16.4024 0.33442 15.4906 0.82484 14.6889C1.31526 13.8872 1.99869 13.2211 2.81274 12.7514C3.07097 12.6024 3.37779 12.562 3.66579 12.6391C3.95379 12.7161 4.19943 12.9044 4.34874 13.1624L4.35024 13.1639Z" fill="black"/>
</g>
<defs>
<clipPath id="clip0_111_1872">
<rect width="24" height="24" fill="white"/>
</clipPath>
</defs>
</svg>
